<svg width="102" height="42" viewBox="0 0 102 42" fill="none" xmlns="http://www.w3.org/2000/svg">
<path d="M56 11C56 11.551 55.552 12 55 12C54.448 12 54 11.551 54 11C54 10.449 54.448 10 55 10C55.552 10 56 10.449 56 11ZM63 5V19C63 21.761 60.762 24 58 24H44C41.239 24 39 21.761 39 19V5C39 2.239 41.239 0 44 0H58C60.762 0 63 2.239 63 5ZM54 6.101C54.323 6.035 54.657 6 55 6C55.343 6 55.677 6.035 56 6.101V4C56 3.448 55.553 3 55 3C54.447 3 54 3.448 54 4V6.101ZM46 8.101C46.323 8.035 46.657 8 47 8C47.343 8 47.677 8.035 48 8.101V4C48 3.448 47.553 3 47 3C46.447 3 46 3.448 46 4V8.101ZM48 17.899C47.677 17.965 47.343 18 47 18C46.657 18 46.323 17.965 46 17.899V20C46 20.552 46.447 21 47 21C47.553 21 48 20.552 48 20V17.899ZM50 13C50 11.343 48.657 10 47 10C45.343 10 44 11.343 44 13C44 14.657 45.343 16 47 16C48.657 16 50 14.657 50 13ZM56 15.899C55.677 15.965 55.343 16 55 16C54.657 16 54.323 15.965 54 15.899V20C54 20.552 54.447 21 55 21C55.553 21 56 20.552 56 20V15.899ZM58 11C58 9.343 56.657 8 55 8C53.343 8 52 9.343 52 11C52 12.657 53.343 14 55 14C56.657 14 58 12.657 58 11Z" fill="white"/>
<path d="M0.900746 31.794H3.57262V39H5.39648V31.794H8.06836V30.2727H0.900746V31.794ZM11.03 35.2159C11.0343 34.3722 11.5499 33.8778 12.2914 33.8778C13.0286 33.8778 13.4632 34.3509 13.459 35.1562V39H15.2743V34.8324C15.2786 33.2983 14.3752 32.3693 13.0115 32.3693C12.0186 32.3693 11.3539 32.8381 11.0556 33.6094H10.9789V30.2727H9.21467V39H11.03V35.2159ZM19.6859 39.1278C21.3052 39.1278 22.3961 38.3395 22.6518 37.125L20.9728 37.0142C20.7896 37.5128 20.3208 37.7727 19.7157 37.7727C18.8081 37.7727 18.2328 37.1719 18.2328 36.196V36.1918H22.6902V35.6932C22.6902 33.4688 21.3436 32.3693 19.6135 32.3693C17.6873 32.3693 16.4387 33.7372 16.4387 35.7571C16.4387 37.8324 17.6703 39.1278 19.6859 39.1278ZM18.2328 35.0668C18.2711 34.321 18.8379 33.7244 19.6433 33.7244C20.4316 33.7244 20.9771 34.2869 20.9814 35.0668H18.2328ZM33.986 30.2727H32.1493V35.7614H32.0726L28.3056 30.2727H26.6863V39H28.5314V33.5071H28.5953L32.3922 39H33.986V30.2727ZM38.4338 39.1278C40.4196 39.1278 41.6554 37.7685 41.6554 35.7528C41.6554 33.7244 40.4196 32.3693 38.4338 32.3693C36.448 32.3693 35.2122 33.7244 35.2122 35.7528C35.2122 37.7685 36.448 39.1278 38.4338 39.1278ZM38.4423 37.7216C37.5261 37.7216 37.0574 36.8821 37.0574 35.7401C37.0574 34.598 37.5261 33.7543 38.4423 33.7543C39.3414 33.7543 39.8102 34.598 39.8102 35.7401C39.8102 36.8821 39.3414 37.7216 38.4423 37.7216ZM46.3173 32.4545H45.0858V30.8864H43.2704V32.4545H42.3755V33.8182H43.2704V37.2273C43.2619 38.5099 44.1355 39.1449 45.4522 39.0895C45.921 39.0724 46.2534 38.9787 46.4366 38.919L46.1511 37.5682C46.0616 37.5852 45.8699 37.6278 45.6994 37.6278C45.3372 37.6278 45.0858 37.4915 45.0858 36.9886V33.8182H46.3173V32.4545ZM47.4998 39H49.3152V32.4545H47.4998V39ZM48.4118 31.6108C48.9529 31.6108 49.3961 31.1974 49.3961 30.6903C49.3961 30.1875 48.9529 29.7741 48.4118 29.7741C47.8748 29.7741 47.4316 30.1875 47.4316 30.6903C47.4316 31.1974 47.8748 31.6108 48.4118 31.6108ZM53.7267 39.1278C55.4696 39.1278 56.5648 38.1051 56.65 36.6009H54.937C54.8304 37.2997 54.3702 37.6918 53.748 37.6918C52.9 37.6918 52.3503 36.9801 52.3503 35.7273C52.3503 34.4915 52.9043 33.7841 53.748 33.7841C54.4128 33.7841 54.839 34.223 54.937 34.875H56.65C56.5733 33.3622 55.427 32.3693 53.7182 32.3693C51.7324 32.3693 50.5051 33.7457 50.5051 35.7528C50.5051 37.7429 51.7111 39.1278 53.7267 39.1278ZM60.7953 39.1278C62.4146 39.1278 63.5055 38.3395 63.7612 37.125L62.0822 37.0142C61.899 37.5128 61.4302 37.7727 60.8251 37.7727C59.9174 37.7727 59.3422 37.1719 59.3422 36.196V36.1918H63.7995V35.6932C63.7995 33.4688 62.4529 32.3693 60.7228 32.3693C58.7967 32.3693 57.5481 33.7372 57.5481 35.7571C57.5481 37.8324 58.7797 39.1278 60.7953 39.1278ZM59.3422 35.0668C59.3805 34.321 59.9473 33.7244 60.7527 33.7244C61.541 33.7244 62.0865 34.2869 62.0907 35.0668H59.3422ZM67.7956 39H71.5243C73.4846 39 74.5286 37.9773 74.5286 36.5881C74.5286 35.2969 73.6039 34.517 72.611 34.4702V34.3849C73.5186 34.1804 74.1877 33.5369 74.1877 32.5099C74.1877 31.2017 73.2161 30.2727 71.29 30.2727H67.7956V39ZM69.6408 37.4915V35.1733H71.1877C72.074 35.1733 72.6238 35.6847 72.6238 36.4048C72.6238 37.0611 72.1763 37.4915 71.1451 37.4915H69.6408ZM69.6408 33.9247V31.7642H71.0428C71.861 31.7642 72.3255 32.1861 72.3255 32.8168C72.3255 33.5071 71.763 33.9247 71.0087 33.9247H69.6408ZM78.6525 39.1278C80.6383 39.1278 81.8741 37.7685 81.8741 35.7528C81.8741 33.7244 80.6383 32.3693 78.6525 32.3693C76.6667 32.3693 75.4309 33.7244 75.4309 35.7528C75.4309 37.7685 76.6667 39.1278 78.6525 39.1278ZM78.661 37.7216C77.7449 37.7216 77.2761 36.8821 77.2761 35.7401C77.2761 34.598 77.7449 33.7543 78.661 33.7543C79.5602 33.7543 80.0289 34.598 80.0289 35.7401C80.0289 36.8821 79.5602 37.7216 78.661 37.7216ZM84.921 39.1236C85.8883 39.1236 86.5147 38.7017 86.8343 38.0923H86.8855V39H88.6071V34.5852C88.6071 33.0256 87.286 32.3693 85.8287 32.3693C84.2605 32.3693 83.2292 33.1193 82.9778 34.3125L84.6568 34.4489C84.7804 34.0142 85.1681 33.6946 85.8201 33.6946C86.438 33.6946 86.7917 34.0057 86.7917 34.5426V34.5682C86.7917 34.9901 86.3443 35.0455 85.2065 35.1562C83.911 35.2756 82.7477 35.7102 82.7477 37.1719C82.7477 38.4673 83.6724 39.1236 84.921 39.1236ZM85.4409 37.8707C84.8826 37.8707 84.4821 37.6108 84.4821 37.1122C84.4821 36.6009 84.9039 36.3494 85.5431 36.2599C85.9395 36.2045 86.5872 36.1108 86.8045 35.9659V36.6605C86.8045 37.3466 86.2377 37.8707 85.4409 37.8707ZM90.0154 39H91.8308V35.2969C91.8308 34.4915 92.4189 33.9375 93.22 33.9375C93.4714 33.9375 93.8166 33.9801 93.987 34.0355V32.4247C93.8251 32.3864 93.5993 32.3608 93.416 32.3608C92.6831 32.3608 92.0822 32.7869 91.8436 33.5966H91.7754V32.4545H90.0154V39ZM97.0328 39.1065C98.0897 39.1065 98.6394 38.4972 98.8908 37.9517H98.9675V39H100.757V30.2727H98.9462V33.554H98.8908C98.6479 33.0213 98.1238 32.3693 97.0286 32.3693C95.5925 32.3693 94.378 33.4858 94.378 35.7358C94.378 37.9261 95.5414 39.1065 97.0328 39.1065ZM97.6081 37.6619C96.7175 37.6619 96.2317 36.8693 96.2317 35.7273C96.2317 34.5938 96.709 33.8139 97.6081 33.8139C98.4902 33.8139 98.9846 34.5597 98.9846 35.7273C98.9846 36.8949 98.4817 37.6619 97.6081 37.6619Z" fill="white"/>
</svg>
