<svg width="24" height="24" viewBox="0 0 24 24" fill="none" xmlns="http://www.w3.org/2000/svg">
<path d="M17 11C17 11.551 16.552 12 16 12C15.448 12 15 11.551 15 11C15 10.449 15.448 10 16 10C16.552 10 17 10.449 17 11ZM24 5V19C24 21.761 21.762 24 19 24H5C2.239 24 0 21.761 0 19V5C0 2.239 2.239 0 5 0H19C21.762 0 24 2.239 24 5ZM15 6.101C15.323 6.035 15.657 6 16 6C16.343 6 16.677 6.035 17 6.101V4C17 3.448 16.553 3 16 3C15.447 3 15 3.448 15 4V6.101ZM7 8.101C7.323 8.035 7.657 8 8 8C8.343 8 8.677 8.035 9 8.101V4C9 3.448 8.553 3 8 3C7.447 3 7 3.448 7 4V8.101ZM9 17.899C8.677 17.965 8.343 18 8 18C7.657 18 7.323 17.965 7 17.899V20C7 20.552 7.447 21 8 21C8.553 21 9 20.552 9 20V17.899ZM11 13C11 11.343 9.657 10 8 10C6.343 10 5 11.343 5 13C5 14.657 6.343 16 8 16C9.657 16 11 14.657 11 13ZM17 15.899C16.677 15.965 16.343 16 16 16C15.657 16 15.323 15.965 15 15.899V20C15 20.552 15.447 21 16 21C16.553 21 17 20.552 17 20V15.899ZM19 11C19 9.343 17.657 8 16 8C14.343 8 13 9.343 13 11C13 12.657 14.343 14 16 14C17.657 14 19 12.657 19 11Z" fill="#EA580C"/>
</svg>
