<svg width="102" height="42" viewBox="0 0 102 42" fill="none" xmlns="http://www.w3.org/2000/svg">
<path d="M56 11C56 11.551 55.552 12 55 12C54.448 12 54 11.551 54 11C54 10.449 54.448 10 55 10C55.552 10 56 10.449 56 11ZM63 5V19C63 21.761 60.762 24 58 24H44C41.239 24 39 21.761 39 19V5C39 2.239 41.239 0 44 0H58C60.762 0 63 2.239 63 5ZM54 6.101C54.323 6.035 54.657 6 55 6C55.343 6 55.677 6.035 56 6.101V4C56 3.448 55.553 3 55 3C54.447 3 54 3.448 54 4V6.101ZM46 8.101C46.323 8.035 46.657 8 47 8C47.343 8 47.677 8.035 48 8.101V4C48 3.448 47.553 3 47 3C46.447 3 46 3.448 46 4V8.101ZM48 17.899C47.677 17.965 47.343 18 47 18C46.657 18 46.323 17.965 46 17.899V20C46 20.552 46.447 21 47 21C47.553 21 48 20.552 48 20V17.899ZM50 13C50 11.343 48.657 10 47 10C45.343 10 44 11.343 44 13C44 14.657 45.343 16 47 16C48.657 16 50 14.657 50 13ZM56 15.899C55.677 15.965 55.343 16 55 16C54.657 16 54.323 15.965 54 15.899V20C54 20.552 54.447 21 55 21C55.553 21 56 20.552 56 20V15.899ZM58 11C58 9.343 56.657 8 55 8C53.343 8 52 9.343 52 11C52 12.657 53.343 14 55 14C56.657 14 58 12.657 58 11Z" fill="#D97706"/>
<path d="M0.900746 31.794V30.2727H8.06836V31.794H5.39648V39H3.57262V31.794H0.900746ZM11.03 35.2159V39H9.21467V30.2727H10.9789V33.6094H11.0556C11.2033 33.223 11.4419 32.9205 11.7715 32.7017C12.101 32.4801 12.5144 32.3693 13.0115 32.3693C13.4661 32.3693 13.8624 32.4688 14.2005 32.6676C14.5414 32.8636 14.8056 33.1463 14.9931 33.5156C15.1834 33.8821 15.2772 34.321 15.2743 34.8324V39H13.459V35.1562C13.4618 34.7528 13.3596 34.4389 13.1522 34.2145C12.9476 33.9901 12.6607 33.8778 12.2914 33.8778C12.0442 33.8778 11.8255 33.9304 11.6351 34.0355C11.4476 34.1406 11.2999 34.294 11.1919 34.4957C11.0868 34.6946 11.0328 34.9347 11.03 35.2159ZM19.6859 39.1278C19.0126 39.1278 18.4331 38.9915 17.9473 38.7188C17.4643 38.4432 17.0922 38.054 16.8308 37.5511C16.5694 37.0455 16.4387 36.4474 16.4387 35.7571C16.4387 35.0838 16.5694 34.4929 16.8308 33.9844C17.0922 33.4759 17.46 33.0795 17.9345 32.7955C18.4118 32.5114 18.9714 32.3693 19.6135 32.3693C20.0453 32.3693 20.4473 32.4389 20.8194 32.5781C21.1944 32.7145 21.5211 32.9205 21.7995 33.196C22.0808 33.4716 22.2995 33.8182 22.4558 34.2358C22.612 34.6506 22.6902 35.1364 22.6902 35.6932V36.1918H17.1632V35.0668H20.9814C20.9814 34.8054 20.9245 34.5739 20.8109 34.3722C20.6973 34.1705 20.5396 34.0128 20.3379 33.8991C20.139 33.7827 19.9075 33.7244 19.6433 33.7244C19.3677 33.7244 19.1234 33.7884 18.9103 33.9162C18.7001 34.0412 18.5353 34.2102 18.416 34.4233C18.2967 34.6335 18.2356 34.8679 18.2328 35.1264V36.196C18.2328 36.5199 18.2924 36.7997 18.4118 37.0355C18.5339 37.2713 18.7058 37.4531 18.9274 37.581C19.149 37.7088 19.4118 37.7727 19.7157 37.7727C19.9174 37.7727 20.1021 37.7443 20.2697 37.6875C20.4373 37.6307 20.5808 37.5455 20.7001 37.4318C20.8194 37.3182 20.9103 37.179 20.9728 37.0142L22.6518 37.125C22.5666 37.5284 22.3919 37.8807 22.1277 38.1818C21.8663 38.4801 21.5282 38.7131 21.1135 38.8807C20.7015 39.0455 20.2257 39.1278 19.6859 39.1278ZM33.986 30.2727V39H32.3922L28.5953 33.5071H28.5314V39H26.6863V30.2727H28.3056L32.0726 35.7614H32.1493V30.2727H33.986ZM38.4338 39.1278C37.7718 39.1278 37.1994 38.9872 36.7164 38.706C36.2363 38.4219 35.8656 38.027 35.6042 37.5213C35.3429 37.0128 35.2122 36.4233 35.2122 35.7528C35.2122 35.0767 35.3429 34.4858 35.6042 33.9801C35.8656 33.4716 36.2363 33.0767 36.7164 32.7955C37.1994 32.5114 37.7718 32.3693 38.4338 32.3693C39.0957 32.3693 39.6667 32.5114 40.1468 32.7955C40.6298 33.0767 41.002 33.4716 41.2633 33.9801C41.5247 34.4858 41.6554 35.0767 41.6554 35.7528C41.6554 36.4233 41.5247 37.0128 41.2633 37.5213C41.002 38.027 40.6298 38.4219 40.1468 38.706C39.6667 38.9872 39.0957 39.1278 38.4338 39.1278ZM38.4423 37.7216C38.7434 37.7216 38.9949 37.6364 39.1966 37.4659C39.3983 37.2926 39.5502 37.0568 39.6525 36.7585C39.7576 36.4602 39.8102 36.1207 39.8102 35.7401C39.8102 35.3594 39.7576 35.0199 39.6525 34.7216C39.5502 34.4233 39.3983 34.1875 39.1966 34.0142C38.9949 33.8409 38.7434 33.7543 38.4423 33.7543C38.1383 33.7543 37.8826 33.8409 37.6752 34.0142C37.4707 34.1875 37.3159 34.4233 37.2108 34.7216C37.1085 35.0199 37.0574 35.3594 37.0574 35.7401C37.0574 36.1207 37.1085 36.4602 37.2108 36.7585C37.3159 37.0568 37.4707 37.2926 37.6752 37.4659C37.8826 37.6364 38.1383 37.7216 38.4423 37.7216ZM46.3173 32.4545V33.8182H42.3755V32.4545H46.3173ZM43.2704 30.8864H45.0858V36.9886C45.0858 37.1562 45.1113 37.2869 45.1625 37.3807C45.2136 37.4716 45.2846 37.5355 45.3755 37.5724C45.4693 37.6094 45.5772 37.6278 45.6994 37.6278C45.7846 37.6278 45.8699 37.6207 45.9551 37.6065C46.0403 37.5895 46.1056 37.5767 46.1511 37.5682L46.4366 38.919C46.3457 38.9474 46.2179 38.9801 46.0531 39.017C45.8883 39.0568 45.688 39.081 45.4522 39.0895C45.0147 39.1065 44.6312 39.0483 44.3017 38.9148C43.975 38.7812 43.7207 38.5739 43.5389 38.2926C43.3571 38.0114 43.2676 37.6562 43.2704 37.2273V30.8864ZM47.4998 39V32.4545H49.3152V39H47.4998ZM48.4118 31.6108C48.1419 31.6108 47.9103 31.5213 47.7172 31.3423C47.5268 31.1605 47.4316 30.9432 47.4316 30.6903C47.4316 30.4403 47.5268 30.2259 47.7172 30.0469C47.9103 29.8651 48.1419 29.7741 48.4118 29.7741C48.6816 29.7741 48.9118 29.8651 49.1021 30.0469C49.2953 30.2259 49.3919 30.4403 49.3919 30.6903C49.3919 30.9432 49.2953 31.1605 49.1021 31.3423C48.9118 31.5213 48.6816 31.6108 48.4118 31.6108ZM53.7267 39.1278C53.0563 39.1278 52.4796 38.9858 51.9966 38.7017C51.5165 38.4148 51.1472 38.017 50.8887 37.5085C50.633 37 50.5051 36.4148 50.5051 35.7528C50.5051 35.0824 50.6344 34.4943 50.8929 33.9886C51.1543 33.4801 51.525 33.0838 52.0051 32.7997C52.4853 32.5128 53.0563 32.3693 53.7182 32.3693C54.2892 32.3693 54.7892 32.473 55.2182 32.6804C55.6472 32.8878 55.9867 33.179 56.2367 33.554C56.4867 33.929 56.6245 34.3693 56.65 34.875H54.937C54.8887 34.5483 54.7608 34.2855 54.5534 34.0866C54.3489 33.8849 54.0804 33.7841 53.748 33.7841C53.4668 33.7841 53.2211 33.8608 53.0108 34.0142C52.8034 34.1648 52.6415 34.3849 52.525 34.6747C52.4086 34.9645 52.3503 35.3153 52.3503 35.7273C52.3503 36.1449 52.4071 36.5 52.5208 36.7926C52.6373 37.0852 52.8006 37.3082 53.0108 37.4616C53.2211 37.6151 53.4668 37.6918 53.748 37.6918C53.9554 37.6918 54.1415 37.6491 54.3063 37.5639C54.4739 37.4787 54.6117 37.3551 54.7196 37.1932C54.8304 37.0284 54.9029 36.831 54.937 36.6009H56.65C56.6216 37.1009 56.4853 37.5412 56.2409 37.9219C55.9995 38.2997 55.6657 38.5952 55.2395 38.8082C54.8134 39.0213 54.3091 39.1278 53.7267 39.1278ZM60.7953 39.1278C60.122 39.1278 59.5424 38.9915 59.0566 38.7188C58.5737 38.4432 58.2015 38.054 57.9402 37.5511C57.6788 37.0455 57.5481 36.4474 57.5481 35.7571C57.5481 35.0838 57.6788 34.4929 57.9402 33.9844C58.2015 33.4759 58.5694 33.0795 59.0439 32.7955C59.5211 32.5114 60.0808 32.3693 60.7228 32.3693C61.1547 32.3693 61.5566 32.4389 61.9288 32.5781C62.3038 32.7145 62.6305 32.9205 62.9089 33.196C63.1902 33.4716 63.4089 33.8182 63.5652 34.2358C63.7214 34.6506 63.7995 35.1364 63.7995 35.6932V36.1918H58.2725V35.0668H62.0907C62.0907 34.8054 62.0339 34.5739 61.9203 34.3722C61.8066 34.1705 61.649 34.0128 61.4473 33.8991C61.2484 33.7827 61.0169 33.7244 60.7527 33.7244C60.4771 33.7244 60.2328 33.7884 60.0197 33.9162C59.8095 34.0412 59.6447 34.2102 59.5254 34.4233C59.4061 34.6335 59.345 34.8679 59.3422 35.1264V36.196C59.3422 36.5199 59.4018 36.7997 59.5211 37.0355C59.6433 37.2713 59.8152 37.4531 60.0368 37.581C60.2583 37.7088 60.5211 37.7727 60.8251 37.7727C61.0268 37.7727 61.2115 37.7443 61.3791 37.6875C61.5467 37.6307 61.6902 37.5455 61.8095 37.4318C61.9288 37.3182 62.0197 37.179 62.0822 37.0142L63.7612 37.125C63.676 37.5284 63.5012 37.8807 63.237 38.1818C62.9757 38.4801 62.6376 38.7131 62.2228 38.8807C61.8109 39.0455 61.335 39.1278 60.7953 39.1278ZM67.7956 39V30.2727H71.29C71.932 30.2727 72.4675 30.3679 72.8965 30.5582C73.3255 30.7486 73.6479 31.0128 73.8638 31.3509C74.0797 31.6861 74.1877 32.0724 74.1877 32.5099C74.1877 32.8509 74.1195 33.1506 73.9831 33.4091C73.8468 33.6648 73.6593 33.875 73.4206 34.0398C73.1848 34.2017 72.915 34.3168 72.611 34.3849V34.4702C72.9434 34.4844 73.2544 34.5781 73.5442 34.7514C73.8368 34.9247 74.074 35.1676 74.2559 35.4801C74.4377 35.7898 74.5286 36.1591 74.5286 36.5881C74.5286 37.0511 74.4135 37.4645 74.1834 37.8281C73.9561 38.1889 73.6195 38.4744 73.1735 38.6847C72.7275 38.8949 72.1777 39 71.5243 39H67.7956ZM69.6408 37.4915H71.1451C71.6593 37.4915 72.0343 37.3935 72.2701 37.1974C72.5059 36.9986 72.6238 36.7344 72.6238 36.4048C72.6238 36.1634 72.5655 35.9503 72.449 35.7656C72.3326 35.581 72.1664 35.4361 71.9505 35.331C71.7374 35.2259 71.4831 35.1733 71.1877 35.1733H69.6408V37.4915ZM69.6408 33.9247H71.0087C71.2615 33.9247 71.486 33.8807 71.682 33.7926C71.8809 33.7017 72.0371 33.5739 72.1507 33.4091C72.2672 33.2443 72.3255 33.0469 72.3255 32.8168C72.3255 32.5014 72.2132 32.2472 71.9888 32.054C71.7672 31.8608 71.4519 31.7642 71.0428 31.7642H69.6408V33.9247ZM78.6525 39.1278C77.9906 39.1278 77.4181 38.9872 76.9352 38.706C76.4551 38.4219 76.0843 38.027 75.823 37.5213C75.5616 37.0128 75.4309 36.4233 75.4309 35.7528C75.4309 35.0767 75.5616 34.4858 75.823 33.9801C76.0843 33.4716 76.4551 33.0767 76.9352 32.7955C77.4181 32.5114 77.9906 32.3693 78.6525 32.3693C79.3145 32.3693 79.8855 32.5114 80.3656 32.7955C80.8485 33.0767 81.2207 33.4716 81.4821 33.9801C81.7434 34.4858 81.8741 35.0767 81.8741 35.7528C81.8741 36.4233 81.7434 37.0128 81.4821 37.5213C81.2207 38.027 80.8485 38.4219 80.3656 38.706C79.8855 38.9872 79.3145 39.1278 78.6525 39.1278ZM78.661 37.7216C78.9622 37.7216 79.2136 37.6364 79.4153 37.4659C79.617 37.2926 79.769 37.0568 79.8713 36.7585C79.9764 36.4602 80.0289 36.1207 80.0289 35.7401C80.0289 35.3594 79.9764 35.0199 79.8713 34.7216C79.769 34.4233 79.617 34.1875 79.4153 34.0142C79.2136 33.8409 78.9622 33.7543 78.661 33.7543C78.3571 33.7543 78.1014 33.8409 77.894 34.0142C77.6895 34.1875 77.5346 34.4233 77.4295 34.7216C77.3272 35.0199 77.2761 35.3594 77.2761 35.7401C77.2761 36.1207 77.3272 36.4602 77.4295 36.7585C77.5346 37.0568 77.6895 37.2926 77.894 37.4659C78.1014 37.6364 78.3571 37.7216 78.661 37.7216ZM84.921 39.1236C84.5034 39.1236 84.1312 39.0511 83.8045 38.9062C83.4778 38.7585 83.2193 38.5412 83.0289 38.2543C82.8414 37.9645 82.7477 37.6037 82.7477 37.1719C82.7477 36.8082 82.8145 36.5028 82.948 36.2557C83.0815 36.0085 83.2633 35.8097 83.4934 35.6591C83.7235 35.5085 83.9849 35.3949 84.2775 35.3182C84.573 35.2415 84.8826 35.1875 85.2065 35.1562C85.5872 35.1165 85.894 35.0795 86.127 35.0455C86.3599 35.0085 86.5289 34.9545 86.6341 34.8835C86.7392 34.8125 86.7917 34.7074 86.7917 34.5682V34.5426C86.7917 34.2727 86.7065 34.0639 86.536 33.9162C86.3684 33.7685 86.1298 33.6946 85.8201 33.6946C85.4934 33.6946 85.2335 33.767 85.0403 33.9119C84.8471 34.054 84.7193 34.233 84.6568 34.4489L82.9778 34.3125C83.063 33.9148 83.2306 33.571 83.4806 33.2812C83.7306 32.9886 84.0531 32.7642 84.448 32.608C84.8457 32.4489 85.3059 32.3693 85.8287 32.3693C86.1923 32.3693 86.5403 32.4119 86.8727 32.4972C87.2079 32.5824 87.5048 32.7145 87.7633 32.8935C88.0247 33.0724 88.2306 33.3026 88.3812 33.5838C88.5318 33.8622 88.6071 34.196 88.6071 34.5852V39H86.8855V38.0923H86.8343C86.7292 38.2969 86.5886 38.4773 86.4125 38.6335C86.2363 38.7869 86.0247 38.9077 85.7775 38.9957C85.5304 39.081 85.2449 39.1236 84.921 39.1236ZM85.4409 37.8707C85.7079 37.8707 85.9437 37.8182 86.1483 37.7131C86.3528 37.6051 86.5133 37.4602 86.6298 37.2784C86.7463 37.0966 86.8045 36.8906 86.8045 36.6605V35.9659C86.7477 36.0028 86.6696 36.0369 86.5701 36.0682C86.4735 36.0966 86.3642 36.1236 86.242 36.1491C86.1199 36.1719 85.9977 36.1932 85.8755 36.2131C85.7534 36.2301 85.6426 36.2457 85.5431 36.2599C85.3301 36.2912 85.144 36.3409 84.9849 36.4091C84.8258 36.4773 84.7022 36.5696 84.6142 36.6861C84.5261 36.7997 84.4821 36.9418 84.4821 37.1122C84.4821 37.3594 84.5716 37.5483 84.7505 37.679C84.9324 37.8068 85.1625 37.8707 85.4409 37.8707ZM90.0154 39V32.4545H91.7754V33.5966H91.8436C91.9629 33.1903 92.1632 32.8835 92.4444 32.6761C92.7257 32.4659 93.0495 32.3608 93.416 32.3608C93.5069 32.3608 93.6049 32.3665 93.71 32.3778C93.8152 32.3892 93.9075 32.4048 93.987 32.4247V34.0355C93.9018 34.0099 93.7839 33.9872 93.6333 33.9673C93.4828 33.9474 93.345 33.9375 93.22 33.9375C92.9529 33.9375 92.7143 33.9957 92.5041 34.1122C92.2967 34.2259 92.1319 34.3849 92.0098 34.5895C91.8904 34.794 91.8308 35.0298 91.8308 35.2969V39H90.0154ZM97.0328 39.1065C96.5357 39.1065 96.0854 38.9787 95.682 38.723C95.2814 38.4645 94.9632 38.0852 94.7275 37.5852C94.4945 37.0824 94.378 36.4659 94.378 35.7358C94.378 34.9858 94.4988 34.3622 94.7402 33.8651C94.9817 33.3651 95.3027 32.9915 95.7033 32.7443C96.1067 32.4943 96.5485 32.3693 97.0286 32.3693C97.3951 32.3693 97.7005 32.4318 97.9448 32.5568C98.1919 32.679 98.3908 32.8324 98.5414 33.017C98.6948 33.1989 98.8113 33.3778 98.8908 33.554H98.9462V30.2727H100.757V39H98.9675V37.9517H98.8908C98.8056 38.1335 98.6848 38.3139 98.5286 38.4929C98.3752 38.669 98.1749 38.8153 97.9277 38.9318C97.6834 39.0483 97.3851 39.1065 97.0328 39.1065ZM97.6081 37.6619C97.9007 37.6619 98.1479 37.5824 98.3496 37.4233C98.5542 37.2614 98.7104 37.0355 98.8184 36.7457C98.9292 36.456 98.9846 36.1165 98.9846 35.7273C98.9846 35.3381 98.9306 35 98.8226 34.7131C98.7147 34.4261 98.5584 34.2045 98.3539 34.0483C98.1493 33.892 97.9007 33.8139 97.6081 33.8139C97.3098 33.8139 97.0584 33.8949 96.8539 34.0568C96.6493 34.2187 96.4945 34.4432 96.3894 34.7301C96.2843 35.017 96.2317 35.3494 96.2317 35.7273C96.2317 36.108 96.2843 36.4446 96.3894 36.7372C96.4973 37.027 96.6522 37.2543 96.8539 37.419C97.0584 37.581 97.3098 37.6619 97.6081 37.6619Z" fill="#D97706"/>
</svg>
